<svg width="959" height="717" viewBox="0 0 959 717" fill="none" xmlns="http://www.w3.org/2000/svg">
<path fill-rule="evenodd" clip-rule="evenodd" d="M882.613 1H378.834C357.601 1 337.176 8.85541 321.768 22.9478L25.0852 294.302C-25.2277 340.319 8.53604 422 77.8707 422H424.389C443.128 422 452.253 399.924 438.655 387.487L359.445 315.039C318.651 277.728 346.027 211.5 402.244 211.5H671.396C692.63 211.5 713.054 203.645 728.462 189.552L896.88 35.513C910.478 23.0759 901.352 1 882.613 1ZM76.3866 716H580.166C601.399 716 621.824 708.145 637.232 694.052L933.915 422.698C984.228 376.681 950.464 295 881.129 295H534.611C515.872 295 506.747 317.076 520.345 329.513L599.555 401.961C640.349 439.272 612.973 505.5 556.756 505.5H287.604C266.37 505.5 245.946 513.355 230.538 527.448L62.1203 681.487C48.5222 693.924 57.6476 716 76.3866 716Z" stroke="#8000FF" stroke-opacity="0.1"/>
</svg>
